<?xml version="1.0" encoding="UTF-8"?>
<svg version="1.1" xmlns="http://www.w3.org/2000/svg" width="288" height="102">
<path d="M0 0 C0.93779297 0.00322266 1.87558594 0.00644531 2.84179688 0.00976562 C4.30649414 0.02233398 4.30649414 0.02233398 5.80078125 0.03515625 C6.78884766 0.03966797 7.77691406 0.04417969 8.79492188 0.04882812 C11.23440083 0.06061305 13.67384866 0.07854842 16.11328125 0.09765625 C16.11328125 5.37765625 16.11328125 10.65765625 16.11328125 16.09765625 C9.67828125 16.59265625 9.67828125 16.59265625 3.11328125 17.09765625 C2.45328125 20.06765625 1.79328125 23.03765625 1.11328125 26.09765625 C15.63328125 26.09765625 30.15328125 26.09765625 45.11328125 26.09765625 C45.11328125 46.55765625 45.11328125 67.01765625 45.11328125 88.09765625 C38.51328125 88.09765625 31.91328125 88.09765625 25.11328125 88.09765625 C25.11328125 72.91765625 25.11328125 57.73765625 25.11328125 42.09765625 C17.19328125 42.09765625 9.27328125 42.09765625 1.11328125 42.09765625 C1.11328125 57.27765625 1.11328125 72.45765625 1.11328125 88.09765625 C-5.15671875 88.09765625 -11.42671875 88.09765625 -17.88671875 88.09765625 C-17.88671875 72.91765625 -17.88671875 57.73765625 -17.88671875 42.09765625 C-21.18671875 42.09765625 -24.48671875 42.09765625 -27.88671875 42.09765625 C-27.88671875 36.81765625 -27.88671875 31.53765625 -27.88671875 26.09765625 C-24.58671875 26.09765625 -21.28671875 26.09765625 -17.88671875 26.09765625 C-17.933125 25.25203125 -17.97953125 24.40640625 -18.02734375 23.53515625 C-18.24838481 16.58815139 -18.40158848 10.70327432 -13.88671875 5.09765625 C-9.32153691 1.46414418 -5.78262027 -0.03504618 0 0 Z " fill="#007CFF" transform="translate(161.88671875,11.90234375)"/>
<path d="M0 0 C9.00490934 5.64201399 13.86916491 12.36921347 17.20703125 22.3828125 C18.13311219 34.05750496 16.44100463 43.32389116 9.03515625 52.5625 C1.98762359 59.579915 -6.47426865 62.35542119 -16.16796875 62.6953125 C-25.61232567 62.47355274 -33.57074725 59.51201581 -40.79296875 53.3828125 C-48.14375105 45.63078663 -50.30035711 37.79362109 -50.21264648 27.31640625 C-49.88841959 18.40902809 -46.70533843 12.60713708 -40.71875 6.171875 C-30.20259162 -3.59770012 -13.07327655 -6.36960323 0 0 Z M-25.79296875 17.3828125 C-26.34984375 17.8159375 -26.90671875 18.2490625 -27.48046875 18.6953125 C-30.54746022 22.63858725 -30.97410677 26.53562726 -30.66796875 31.3828125 C-30.07117852 35.94448499 -28.93556336 38.90047793 -25.79296875 42.3828125 C-22.2994013 44.90143089 -19.58193285 45.63219697 -15.35546875 45.4453125 C-11.11308383 44.75735819 -8.25755885 43.31145157 -5.1796875 40.3125 C-2.04261317 35.94710643 -1.36931741 31.12584793 -2.1796875 25.87890625 C-3.58108754 20.96185524 -5.32257701 18.1338228 -9.79296875 15.3828125 C-15.0205617 12.76901603 -21.33681637 13.84410326 -25.79296875 17.3828125 Z " fill="#007CFF" transform="translate(111.79296875,39.6171875)"/>
<path d="M0 0 C7.07722244 4.96724308 12.18845475 9.80828855 14.42382812 18.38500977 C15.05397053 22.38621461 15.00960443 26.29987775 14.984375 30.34375 C14.98296005 31.20232101 14.9815451 32.06089203 14.98008728 32.94548035 C14.97450932 35.67592924 14.96196089 38.40629482 14.94921875 41.13671875 C14.9442009 42.99283735 14.93963849 44.84895725 14.93554688 46.70507812 C14.92539987 51.24484925 14.9058202 55.78444121 14.88671875 60.32421875 C8.28671875 60.32421875 1.68671875 60.32421875 -5.11328125 60.32421875 C-5.1390625 57.56691406 -5.16484375 54.80960938 -5.19140625 51.96875 C-5.22984562 49.29115698 -5.27499967 46.61375531 -5.32080078 43.9362793 C-5.34898384 42.07895072 -5.37021165 40.2215028 -5.38427734 38.36401367 C-5.40574409 35.68997214 -5.45241194 33.0173614 -5.50390625 30.34375 C-5.50513489 29.51647903 -5.50636353 28.68920807 -5.50762939 27.83686829 C-5.63593784 22.75862575 -6.27614675 19.999303 -10.11328125 16.32421875 C-13.58591398 14.58790239 -17.32521138 14.72231473 -21.11328125 15.32421875 C-23.86897572 17.5058102 -25.54916872 19.19599369 -27.11328125 22.32421875 C-27.27034456 25.16629901 -27.37177695 27.98759182 -27.4296875 30.83203125 C-27.4504686 31.67265106 -27.47124969 32.51327087 -27.49266052 33.37936401 C-27.55813564 36.0692311 -27.61703145 38.75919718 -27.67578125 41.44921875 C-27.71896841 43.27084364 -27.76258277 45.09245846 -27.80664062 46.9140625 C-27.91462032 51.38401452 -28.01370854 55.85403983 -28.11328125 60.32421875 C-34.38328125 60.32421875 -40.65328125 60.32421875 -47.11328125 60.32421875 C-47.18238481 54.48880708 -47.24204866 48.65483169 -47.27807617 42.81933594 C-47.29310469 40.83686495 -47.31353323 38.85442689 -47.33959961 36.87207031 C-47.37624508 34.01228682 -47.39306729 31.15294531 -47.40625 28.29296875 C-47.42173386 27.4155603 -47.43721771 26.53815186 -47.45317078 25.63415527 C-47.45535335 17.54060767 -45.47666663 10.99402978 -39.92578125 4.9296875 C-30.02738832 -3.83807003 -11.7865396 -6.59953593 0 0 Z " fill="#007CFF" transform="translate(267.11328125,39.67578125)"/>
<path d="M0 0 C6.93 0 13.86 0 21 0 C21.0093457 1.89274658 21.01869141 3.78549316 21.02832031 5.7355957 C21.06382813 11.98630508 21.11761304 18.23664756 21.18390274 24.48710346 C21.22342779 28.27714595 21.25559117 32.06695437 21.27099609 35.85717773 C21.28613022 39.51439554 21.32051615 43.17097008 21.36830902 46.82790184 C21.38315668 48.22369994 21.39104296 49.61958987 21.39188385 51.01546669 C21.3942447 52.96916002 21.42355675 54.92276474 21.45410156 56.8762207 C21.46298401 57.9887471 21.47186646 59.1012735 21.48101807 60.24751282 C21.7501221 63.10224757 21.7501221 63.10224757 23.86804199 64.85571289 C26.57310001 66.30760032 28.57719251 66.43024448 31.640625 66.51171875 C33.24550781 66.56489258 33.24550781 66.56489258 34.8828125 66.61914062 C35.99398437 66.64169922 37.10515625 66.66425781 38.25 66.6875 C39.37664063 66.72166016 40.50328125 66.75582031 41.6640625 66.79101562 C44.44235954 66.87342274 47.22116399 66.93838972 50 67 C50 72.61 50 78.22 50 84 C45.74879883 84.09247326 41.50116633 84.17189879 37.24975586 84.21972656 C35.80757748 84.23968751 34.3654784 84.26686663 32.92358398 84.30175781 C23.21354324 84.53062532 15.20384423 84.36964019 7.44140625 77.8515625 C6.82136719 77.11679688 6.20132812 76.38203125 5.5625 75.625 C4.92441406 74.89539063 4.28632813 74.16578125 3.62890625 73.4140625 C0.39754022 68.62513155 -0.24918888 64.04154305 -0.22705078 58.35205078 C-0.22689972 57.05115509 -0.22674866 55.7502594 -0.22659302 54.40994263 C-0.21638202 53.00506433 -0.20595007 51.60018763 -0.1953125 50.1953125 C-0.19157846 48.74657385 -0.18873333 47.29783266 -0.18673706 45.84909058 C-0.17913136 42.0514824 -0.15950952 38.25402922 -0.1373291 34.45648193 C-0.11680438 30.57517595 -0.10772122 26.69384471 -0.09765625 22.8125 C-0.07626043 15.20825477 -0.04110362 7.60416892 0 0 Z " fill="#007CFF" transform="translate(6,16)"/>
<path d="M0 0 C3.58552881 1.63687185 4.79315055 2.68972583 7 6 C7.54602034 9.39107371 7.54627924 12.60874176 7 16 C4.80977082 18.82424288 3.16982793 20.41508603 0 22 C-4.65057424 22.38754785 -7.1145104 22.40994889 -11.375 20.4375 C-14.68070588 17.36791597 -15.3961425 15.45344903 -16 11 C-15.3961425 6.54655097 -14.68070588 4.63208403 -11.375 1.5625 C-7.01692465 -0.45512748 -4.77309361 -0.53034373 0 0 Z " fill="#007CFF" transform="translate(201,10)"/>
</svg>
