<?xml version="1.0" encoding="UTF-8"?>
<svg version="1.1" xmlns="http://www.w3.org/2000/svg" width="614" height="290">
<path d="M0 0 C202.62 0 405.24 0 614 0 C614 95.7 614 191.4 614 290 C411.38 290 208.76 290 0 290 C0 194.3 0 98.6 0 0 Z " fill="#F9F7F4" transform="translate(0,0)"/>
<path d="M0 0 C1.046875 1.84765625 1.046875 1.84765625 1.75 4.0625 C1.99234375 4.79597656 2.2346875 5.52945313 2.484375 6.28515625 C2.65453125 6.85105469 2.8246875 7.41695312 3 8 C3.59167969 7.51789063 4.18335938 7.03578125 4.79296875 6.5390625 C5.58316406 5.90742187 6.37335938 5.27578125 7.1875 4.625 C7.96480469 3.99851562 8.74210937 3.37203125 9.54296875 2.7265625 C16.17719551 -1.93532657 23.1271784 -1.84701931 31 -1 C38.20764704 1.44038443 42.78441281 7.65987715 46.140625 14.234375 C48.39553352 21.49108059 48.33649093 31.95810591 45.4375 39.0625 C40.64654728 47.75345634 33.92208585 53.56149406 24.8125 57.3125 C16.87502171 58.74384854 9.61324985 58.67289901 2 56 C2.11846698 60.48422272 2.24272997 64.96823642 2.37231445 69.45214844 C2.41556707 70.97684386 2.45724885 72.50158469 2.49731445 74.02636719 C2.55525203 76.22084222 2.61887795 78.41509068 2.68359375 80.609375 C2.70030624 81.2886908 2.71701874 81.96800659 2.73423767 82.66790771 C2.83772902 85.9906045 3.18633812 88.74535248 4 92 C7.96 92.66 11.92 93.32 16 94 C16 94.33 16 94.66 16 95 C4.78 95 -6.44 95 -18 95 C-18 94.67 -18 94.34 -18 94 C-14.535 93.505 -14.535 93.505 -11 93 C-9.98999116 88.82051667 -9.85191984 84.77903668 -9.85473633 80.50341797 C-9.85137772 79.76623535 -9.8480191 79.02905273 -9.84455872 78.26953125 C-9.83509391 75.84373267 -9.83310827 73.41800337 -9.83203125 70.9921875 C-9.82881703 69.3025815 -9.82545283 67.61297578 -9.82194519 65.92337036 C-9.81596618 62.38787185 -9.81410418 58.85239774 -9.81469727 55.31689453 C-9.81479916 50.78281276 -9.80111393 46.24888664 -9.78392506 41.71484184 C-9.77282146 38.22847775 -9.7707775 34.7421516 -9.77130699 31.25577164 C-9.77012567 29.5835936 -9.76569538 27.91141463 -9.75797462 26.239254 C-9.74820197 23.90532135 -9.75104116 21.57173086 -9.75708008 19.23779297 C-9.74865082 18.19977036 -9.74865082 18.19977036 -9.74005127 17.14077759 C-9.76389677 13.52301674 -9.93058216 12.10412676 -12 9 C-15.53672026 8.69245911 -18.61045199 8.95706215 -22 10 C-22 9.34 -22 8.68 -22 8 C-19.09329038 6.45955109 -16.17328662 4.94622078 -13.25 3.4375 C-12.425 2.99986328 -11.6 2.56222656 -10.75 2.11132812 C-9.95078125 1.70205078 -9.1515625 1.29277344 -8.328125 0.87109375 C-7.5949707 0.48880615 -6.86181641 0.10651855 -6.10644531 -0.28735352 C-3.61095185 -1.13162164 -2.41999413 -0.987484 0 0 Z " fill="#303030" transform="translate(238,121)"/>
<path d="M0 0 C10.89 0 21.78 0 33 0 C33 0.66 33 1.32 33 2 C31.35 2.33 29.7 2.66 28 3 C28.57368771 7.02121339 29.81732 9.69315874 32.01953125 13.08984375 C32.62990234 14.03923828 33.24027344 14.98863281 33.86914062 15.96679688 C34.51044922 16.94712891 35.15175781 17.92746094 35.8125 18.9375 C36.44220703 19.91396484 37.07191406 20.89042969 37.72070312 21.89648438 C39.47031141 24.60443004 41.23446206 27.30242846 43 30 C43.41942871 30.65758301 43.83885742 31.31516602 44.27099609 31.99267578 C46.14206351 35.00986439 46.14206351 35.00986439 49 37 C49.32677734 35.99066406 49.32677734 35.99066406 49.66015625 34.9609375 C51.7309215 30.38472742 54.86318439 26.66064594 57.92382812 22.703125 C62.35859851 16.83797658 65.55884646 11.63756833 65 4 C62.69 3.34 60.38 2.68 58 2 C58 1.34 58 0.68 58 0 C67.9 0 77.8 0 88 0 C88 0.66 88 1.32 88 2 C86.88625 2.309375 85.7725 2.61875 84.625 2.9375 C74.82184302 6.64399398 68.08939429 15.87714372 62 24 C61.00869426 25.26501439 60.016442 26.52928741 59.0234375 27.79296875 C57.99352484 29.13183896 56.96487439 30.47168107 55.9375 31.8125 C55.43549072 32.44687988 54.93348145 33.08125977 54.41625977 33.73486328 C51.68832451 37.20750664 51.68832451 37.20750664 51.19775391 41.42895508 C52.06298099 44.201842 53.17264612 46.1586926 54.80859375 48.5546875 C55.38601318 49.4098999 55.96343262 50.2651123 56.55834961 51.14624023 C57.17846924 52.04673096 57.79858887 52.94722168 58.4375 53.875 C59.71914312 55.75884719 61.00039064 57.64296358 62.28125 59.52734375 C62.91417969 60.45401855 63.54710937 61.38069336 64.19921875 62.33544922 C65.80117479 64.70580553 67.36476471 67.09397085 68.90625 69.50390625 C75.96734374 81.06271365 75.96734374 81.06271365 87.4375 87.375 C88.613125 87.58125 89.78875 87.7875 91 88 C91 88.66 91 89.32 91 90 C79.78 90 68.56 90 57 90 C57 89.34 57 88.68 57 88 C58.98 87.505 58.98 87.505 61 87 C60.47027089 82.00128348 58.10687247 78.55430056 55.4375 74.4375 C54.99293457 73.73802246 54.54836914 73.03854492 54.09033203 72.31787109 C50.62820651 66.89539889 47.04990964 61.55461201 43.3984375 56.2578125 C42 54 42 54 42 52 C37.76860742 55.93904182 34.59169968 60.21029882 31.375 65 C30.65957031 66.04800781 30.65957031 66.04800781 29.9296875 67.1171875 C28.60437002 69.06834934 27.29887183 71.03116982 26 73 C25.39800781 73.90105469 24.79601562 74.80210937 24.17578125 75.73046875 C22.90849141 78.17663286 22.67400596 79.58878385 22.8125 82.3125 C22.874375 83.529375 22.93625 84.74625 23 86 C24.98 86.66 26.96 87.32 29 88 C29 88.66 29 89.32 29 90 C19.1 90 9.2 90 -1 90 C-1 89.34 -1 88.68 -1 88 C0.27875 87.690625 1.5575 87.38125 2.875 87.0625 C14.21234272 83.21241648 21.26729388 72.33432539 28 63 C28.46567383 62.35643555 28.93134766 61.71287109 29.41113281 61.04980469 C32.29864735 57.05035235 35.15862142 53.03233939 38 49 C33.68936092 40.57147399 28.65009967 32.79856038 23.33642578 24.98779297 C21.97017173 22.95563359 20.63589846 20.90543691 19.30859375 18.84765625 C18.8693457 18.17186523 18.43009766 17.49607422 17.97753906 16.79980469 C17.14124809 15.51149876 16.31078621 14.21938268 15.48730469 12.92285156 C12.32894905 8.09382922 8.97758426 4.11237277 3.1875 2.75 C2.135625 2.5025 1.08375 2.255 0 2 C0 1.34 0 0.68 0 0 Z " fill="#343433" transform="translate(385,87)"/>
<path d="M0 0 C0.66 0.33 1.32 0.66 2 1 C2 1.66 2 2.32 2 3 C26.42 3 50.84 3 76 3 C76.33 2.01 76.66 1.02 77 0 C77.66 0 78.32 0 79 0 C78.67 9.57 78.34 19.14 78 29 C77.34 29 76.68 29 76 29 C75.65388672 27.80503906 75.65388672 27.80503906 75.30078125 26.5859375 C72.90115344 18.7895183 71.12252422 13.57657764 64 9.125 C58.64386517 7.08513573 52.6256317 7.77159089 47 8 C45.83736721 11.48789836 45.84471543 14.62506366 45.83886719 18.25366211 C45.83390228 18.98894638 45.82893738 19.72423065 45.82382202 20.48179626 C45.80921921 22.91365494 45.80240227 25.34544844 45.796875 27.77734375 C45.79112288 29.46741233 45.78536516 31.15748089 45.77960205 32.84754944 C45.76909804 36.39080103 45.76325116 39.93402996 45.75976562 43.47729492 C45.754276 48.01812843 45.73023561 52.55866283 45.70179367 57.09940243 C45.68317543 60.59010191 45.67796217 64.08072913 45.67642975 67.57147408 C45.67340186 69.24562786 45.66536871 70.91978034 45.65224457 72.59388542 C45.63519748 74.93513703 45.63706048 77.27565494 45.64355469 79.61694336 C45.6343399 80.30850525 45.62512512 81.00006714 45.6156311 81.71258545 C45.64208349 84.755495 45.86121447 86.7564475 47.38092041 89.4233551 C49.47775816 91.46523653 50.79810511 91.58249885 53.6875 91.75 C54.89986328 91.83507812 54.89986328 91.83507812 56.13671875 91.921875 C56.75160156 91.94765625 57.36648437 91.9734375 58 92 C58 92.66 58 93.32 58 94 C44.8 94 31.6 94 18 94 C18 93.34 18 92.68 18 92 C18.61488281 91.95101562 19.22976562 91.90203125 19.86328125 91.8515625 C21.07564453 91.73941406 21.07564453 91.73941406 22.3125 91.625 C23.11300781 91.55539063 23.91351563 91.48578125 24.73828125 91.4140625 C27.27224441 91.10435574 27.27224441 91.10435574 30 89 C30.29717756 86.43800835 30.39922375 84.11693528 30.37231445 81.55273438 C30.37596512 80.78512283 30.37961578 80.01751129 30.38337708 79.22663879 C30.39150182 76.68211944 30.37785693 74.13823309 30.36328125 71.59375 C30.36276287 69.8302002 30.36327971 68.06664981 30.36479187 66.30310059 C30.36470206 62.60416049 30.35425498 58.90543795 30.33618164 55.20654297 C30.31349412 50.45813612 30.31294941 45.71004738 30.31969929 40.96160126 C30.32303607 37.31912392 30.31641468 33.6767195 30.30657005 30.03425598 C30.30271274 28.28311036 30.30157203 26.53195664 30.3031559 24.7808075 C30.30352554 22.33613551 30.29093497 19.89187585 30.2746582 17.44726562 C30.27713562 16.71888992 30.27961304 15.99051422 30.28216553 15.24006653 C30.35666131 11.16969061 30.35666131 11.16969061 28 8 C21.9213372 7.11992424 16.13294614 7.49191789 10.77734375 10.61328125 C4.77750126 15.29447704 1.72469959 22.07605751 -1 29 C-1.33 29 -1.66 29 -2 29 C-2.34057669 19.18003888 -1.28846906 9.70953473 0 0 Z " fill="#353535" transform="translate(82,83)"/>
<path d="M0 0 C3 2.4375 3 2.4375 5 6 C5 9.96 5 13.92 5 18 C-6.88 18 -18.76 18 -31 18 C-29.94222111 33.03296485 -29.94222111 33.03296485 -22 45 C-16.38191464 49.17755065 -9.68633808 48.62087425 -3 48 C0.18496411 47.23875858 2.95482291 46.2387161 6 45 C3.6218767 50.7026426 -1.39723199 52.75776981 -6.75 55.3125 C-17.19269593 57.52153183 -25.82161959 55.84432559 -34.8125 50.25 C-41.12575159 43.7563698 -44.26305475 36.32115311 -44.4375 27.25 C-44.29078218 18.5477992 -41.60846135 12.55123657 -35.75 6.1875 C-26.20420151 -2.64810779 -11.91964171 -7.03852146 0 0 Z " fill="#343434" transform="translate(339,123)"/>
<path d="M0 0 C5.69929521 1.76911208 9.16540858 5.95161611 12 11 C13.4565272 15.36958161 13.26542961 19.6091203 13.3125 24.1875 C13.34150391 25.10853516 13.37050781 26.02957031 13.40039062 26.97851562 C13.47333244 34.88428644 11.54108612 39.95069665 6.5 46 C2.72077378 48.80332476 -1.38378614 48.74094316 -5.9453125 48.5703125 C-11.17081238 47.59470766 -15.27055938 44.72944062 -19 41 C-19.29158483 36.06704911 -19.31403738 31.13141869 -19.35009766 26.19067383 C-19.3666472 24.52711996 -19.39392451 22.86363691 -19.43212891 21.20043945 C-19.48691687 18.80382351 -19.50877368 16.40887671 -19.5234375 14.01171875 C-19.54610687 13.26991867 -19.56877625 12.52811859 -19.59213257 11.76383972 C-19.57661651 7.96819021 -19.36678009 6.37155289 -16.65478516 3.62426758 C-15.77870605 3.08825928 -14.90262695 2.55225098 -14 2 C-9.51269905 -0.99153396 -5.25932059 -0.58191362 0 0 Z " fill="#F6F4F1" transform="translate(259,127)"/>
<path d="M0 0 C8.91 0 17.82 0 27 0 C27 0.33 27 0.66 27 1 C24.69 1.33 22.38 1.66 20 2 C22.28518712 9.71885427 25.62382446 16.80738543 29.15283203 24.01416016 C30.13523219 26.02090121 31.10923857 28.03155531 32.08203125 30.04296875 C34.50166792 35.90478698 34.50166792 35.90478698 38 41 C39.43619996 36.98398767 40.85989616 32.96382136 42.27246094 28.93945312 C42.75412098 27.57270235 43.23910267 26.20711723 43.72753906 24.84277344 C44.43142611 22.87476271 45.12302717 20.9027873 45.8125 18.9296875 C46.23144531 17.74616699 46.65039062 16.56264648 47.08203125 15.34326172 C47.99206281 12.02890741 48.2642343 9.41572685 48 6 C45.87151333 2.68902073 42.65223694 2.05509067 39 1 C39 0.67 39 0.34 39 0 C47.58 0 56.16 0 65 0 C63.68 0.66 62.36 1.32 61 2 C50.25251173 10.48485916 46.54174782 27.88841886 42.0625 40.25 C34.32717729 61.54739526 34.32717729 61.54739526 30.21484375 71.0078125 C29.9414064 71.6401178 29.66796906 72.2724231 29.38624573 72.92388916 C25.68881999 81.23840527 20.65920942 88.86226299 13 94 C10.11079306 94.96306898 8.07752119 95.1955936 5.0625 95.25 C4.20785156 95.27578125 3.35320312 95.3015625 2.47265625 95.328125 C-0.51930895 94.93108696 -1.85397407 94.09702991 -4 92 C-4.46376624 88.81988862 -4.54663625 86.91106042 -2.875 84.125 C-0.14747535 82.48848521 1.87973093 82.67497197 5 83 C5.99 83.66 6.98 84.32 8 85 C12.08298226 85.55909461 12.08298226 85.55909461 16 85 C20.50739989 81.33906018 22.75821044 77.13323565 25.1875 72 C25.52974609 71.30132812 25.87199219 70.60265625 26.22460938 69.8828125 C27.17255149 67.93170834 28.08936195 65.9687178 29 64 C29.42925781 63.113125 29.85851562 62.22625 30.30078125 61.3125 C32.00017721 55.69215134 28.4541889 50.51667607 25.95703125 45.62109375 C25.55095139 44.81317886 25.14487152 44.00526398 24.72648621 43.17286682 C23.42744836 40.59153054 22.12015895 38.01447791 20.8125 35.4375 C19.52808691 32.8911565 18.24532634 30.34398501 16.96261597 27.79678345 C16.12957101 26.14593994 15.29408272 24.49632697 14.45608521 22.84799194 C12.67018477 19.33390491 10.89851932 15.81926539 9.22412109 12.25048828 C8.72090332 11.18942871 8.21768555 10.12836914 7.69921875 9.03515625 C7.28889404 8.14320557 6.87856934 7.25125488 6.45581055 6.33227539 C4.79272437 3.38095258 4.79272437 3.38095258 0 0 Z " fill="#323232" transform="translate(153,122)"/>
<path d="M0 0 C3.86028212 1.73950985 6.99446339 3.86417109 8.625 7.875 C8.8203125 10.84790039 8.8203125 10.84790039 8.75 14.09765625 C8.73195313 15.17926025 8.71390625 16.26086426 8.6953125 17.37524414 C8.67210937 18.20016357 8.64890625 19.02508301 8.625 19.875 C4.50006128 19.93375981 0.37523232 19.96884938 -3.75 20 C-4.90628906 20.01675781 -6.06257813 20.03351563 -7.25390625 20.05078125 C-14.21867123 20.0901302 -20.61533792 19.5885811 -27.375 17.875 C-25.61847564 7.86885942 -25.61847564 7.86885942 -21.375 3.875 C-19.125 3.0625 -19.125 3.0625 -17.375 2.875 C-17.375 1.885 -17.375 0.895 -17.375 -0.125 C-12.40846889 -2.60826556 -5.15649374 -1.67290827 0 0 Z " fill="#373636" transform="translate(335.375,121.125)"/>
<path d="M0 0 C2.90295747 2.30234558 3.65931045 4.97793136 4.8125 8.4375 C4.8125 10.4175 4.8125 12.3975 4.8125 14.4375 C-2.7775 14.4375 -10.3675 14.4375 -18.1875 14.4375 C-15.52083333 3.77083333 -15.52083333 3.77083333 -10.3125 0.125 C-6.75481249 -1.02601655 -3.60298419 -0.92648165 0 0 Z " fill="#F5F3F0" transform="translate(326.1875,123.5625)"/>
<path d="M0 0 C8.58 0 17.16 0 26 0 C24.02 0.99 24.02 0.99 22 2 C10.99921637 10.68482919 7.42196277 28.34555192 3 41 C2.01 40.67 1.02 40.34 0 40 C1.85226968 32.47718542 4.25300889 25.24549484 7.01806641 18.01586914 C8.54887014 13.87150981 9.42554883 10.49190436 9 6 C6.87151333 2.68902073 3.65223694 2.05509067 0 1 C0 0.67 0 0.34 0 0 Z " fill="#363636" transform="translate(192,122)"/>
<path d="M0 0 C1.38434811 3.07031396 0.92727894 4.19223844 -0.29296875 7.41796875 C-0.91178551 8.68077897 -1.54379123 9.9371949 -2.1875 11.1875 C-2.49236328 11.82880859 -2.79722656 12.47011719 -3.11132812 13.13085938 C-5.4491284 17.77215258 -5.4491284 17.77215258 -8.23828125 18.92578125 C-8.81964844 18.95027344 -9.40101563 18.97476563 -10 19 C-8.44737985 15.02887538 -6.75773545 11.13459535 -5 7.25 C-4.484375 6.10015625 -3.96875 4.9503125 -3.4375 3.765625 C-2 1 -2 1 0 0 Z " fill="#3F3F3F" transform="translate(184,185)"/>
<path d="M0 0 C2.39254576 0.22560676 4.78928123 0.40848595 7.1875 0.5625 C9.09595703 0.68818359 9.09595703 0.68818359 11.04296875 0.81640625 C12.01878906 0.87699219 12.99460937 0.93757812 14 1 C14 1.33 14 1.66 14 2 C7.07 2 0.14 2 -7 2 C-7 1.34 -7 0.68 -7 0 C-3.98968256 -0.93423645 -3.13349732 -1.04449911 0 0 Z " fill="#525151" transform="translate(391,175)"/>
<path d="M0 0 C1.46726798 3.81489674 0.43336419 6.29011622 -1 10 C-1.99 9.67 -2.98 9.34 -4 9 C-3.71848913 7.68528432 -3.42446661 6.37324233 -3.125 5.0625 C-2.96257812 4.33160156 -2.80015625 3.60070312 -2.6328125 2.84765625 C-2 1 -2 1 0 0 Z " fill="#424242" transform="translate(196,153)"/>
<path d="M0 0 C0.33 0 0.66 0 1 0 C1 2.31 1 4.62 1 7 C1.66 7 2.32 7 3 7 C2.34 8.65 1.68 10.3 1 12 C0.67 12 0.34 12 0 12 C0 8.04 0 4.08 0 0 Z " fill="#636262" transform="translate(80,100)"/>
</svg>
